<?xml version="1.0" encoding="utf-8"?>
<!-- Generator: Adobe Illustrator 25.0.0, SVG Export Plug-In . SVG Version: 6.00 Build 0)  -->
<svg version="1.1" id="Logo_Burger_House" xmlns="http://www.w3.org/2000/svg" xmlns:xlink="http://www.w3.org/1999/xlink" x="0px"
	 y="0px" viewBox="0 0 48.3 10.9" style="enable-background:new 0 0 48.3 10.9;" xml:space="preserve">
<style type="text/css">
	.st0{fill:#3A291B;}
</style>
<g id="Burger">
	<g id="Base_burger">
	</g>
	<g id="Body_burger">
	</g>
	<g id="Content_burger">
		<g id="Calque_12">
			<path class="st0" d="M1.4,5.7h0.3V4.5h7.5v1.2h0.3c0.1,0,0.2,0,0.3,0.1V4.4H1.2v1.4C1.2,5.7,1.3,5.7,1.4,5.7z"/>
		</g>
		<g id="Calque_13">
			<path class="st0" d="M5,5.1H4.7C4.6,5.2,4.6,5.3,4.6,5.4c0,0.2-0.2,0.4-0.4,0.4c-0.2,0-0.4-0.2-0.4-0.4c0-0.1,0-0.2-0.1-0.3H3.3
				c0,0.1-0.1,0.2-0.1,0.3c0,0.5,0.4,0.9,0.9,0.9s0.9-0.4,0.9-0.9C5.1,5.3,5.1,5.2,5,5.1z"/>
		</g>
		<g id="Calque_11">
			<path class="st0" d="M7.8,5.1c-0.1,0-0.2,0.1-0.2,0.1h0v3.2c0,0.2-0.2,0.4-0.3,0.4C7.1,8.8,7,8.7,7,8.5V5.2c0,0,0-0.1-0.2-0.1
				H6.3v3.5c0,0.5,0.4,0.9,0.9,0.9s0.9-0.4,0.9-0.9V5.1H7.8z"/>
			<g>
				<path class="st0" d="M7,5.2c0,0,0-0.1-0.2-0.1H4.7C4.6,5.2,4.6,5.3,4.6,5.4c0,0.1,0,0.2-0.1,0.3H7V5.2z"/>
				<path class="st0" d="M9.4,5.1H7.8c-0.1,0-0.2,0.1-0.2,0.1h0v0.4h1.8c0.4,0,0.7,0.3,0.7,0.7C10.1,6.7,9.8,7,9.4,7H7.6v0.6h1.8
					c0.7,0,1.3-0.6,1.3-1.3C10.7,5.7,10.1,5.1,9.4,5.1z"/>
				<path class="st0" d="M7,7H1.4C1.1,7,0.8,6.7,0.8,6.3c0-0.4,0.3-0.7,0.7-0.7h2.4C3.8,5.6,3.7,5.5,3.7,5.4c0-0.1,0-0.2-0.1-0.3
					H1.4c-0.7,0-1.3,0.6-1.3,1.3c0,0.7,0.6,1.3,1.3,1.3H7V7z"/>
			</g>
			<g>
				<path class="st0" d="M7,8.2H1.7V7H1.4C1.3,7,1.2,7,1.2,6.9v1.5H7V8.2z"/>
				<path class="st0" d="M9.4,7H9.2v1.3H7.6v0.2h2.1V6.9C9.6,7,9.5,7,9.4,7z"/>
			</g>
			<path class="st0" d="M9.8,8.2H7.6v0.2c0,0.1-0.1,0.3-0.2,0.3h2v0.4c0,0.5-0.4,0.9-0.9,0.9H2.3c-0.5,0-0.9-0.4-0.9-0.9V8.8h5.7
				C7,8.7,7,8.6,7,8.5V8.2H1c-0.1,0-0.2,0.1-0.2,0.2v0.7c0,1,0.6,1.6,1.6,1.6h6.1c1,0,1.6-0.5,1.6-1.5V8.4C10,8.3,9.9,8.2,9.8,8.2z"
				/>
		</g>
	</g>
	<g id="Top_burger">
		<g>
			<path class="st0" d="M6.7,0.1H4.2c-1.8,0-3.3,1.5-3.3,3.5v0.6c0,0.1,0.1,0.2,0.2,0.2h8.8c0.1,0,0.2-0.1,0.2-0.2V3.6
				C10,1.7,8.5,0.1,6.7,0.1z M9.5,3.9H1.4V3.5c0-1.5,1.2-2.7,2.7-2.7h2.6c1.5,0,2.7,1.2,2.7,2.7V3.9z"/>
		</g>
	</g>
	<g id="Calque_14">
		<circle class="st0" cx="2.9" cy="2.3" r="0.3"/>
		<circle class="st0" cx="5.4" cy="2.3" r="0.3"/>
		<circle class="st0" cx="7.9" cy="2.3" r="0.3"/>
		<circle class="st0" cx="6.7" cy="1.7" r="0.3"/>
		<circle class="st0" cx="4.2" cy="1.7" r="0.3"/>
	</g>
</g>
<g id="Burger_House__x28_typo_Bebas_Neue_x29_">
	<g>
		<path class="st0" d="M17.4,4v0.2c0,0.5-0.2,0.9-0.5,1c0.4,0.2,0.6,0.6,0.6,1.1v0.4C17.5,7.6,17,8,16.2,8h-1.3V2.8h1.2
			C17,2.8,17.4,3.2,17.4,4z M15.8,3.6v1.4h0.3c0.3,0,0.5-0.1,0.5-0.5V4.1c0-0.4-0.1-0.5-0.4-0.5H15.8z M15.8,5.7v1.6h0.5
			c0.3,0,0.4-0.1,0.4-0.5V6.3c0-0.5-0.2-0.6-0.5-0.6H15.8z"/>
		<path class="st0" d="M18.7,2.8v4c0,0.4,0.2,0.5,0.4,0.5c0.3,0,0.4-0.1,0.4-0.5v-4h0.8v3.9c0,0.8-0.4,1.3-1.2,1.3
			c-0.8,0-1.2-0.5-1.2-1.3V2.8H18.7z"/>
		<path class="st0" d="M22.6,8c0-0.1-0.1-0.2-0.1-0.6V6.6c0-0.5-0.2-0.7-0.5-0.7h-0.3V8h-0.8V2.8h1.2c0.8,0,1.2,0.4,1.2,1.2v0.4
			c0,0.5-0.2,0.9-0.5,1.1c0.4,0.2,0.5,0.6,0.5,1.1v0.8c0,0.3,0,0.4,0.1,0.6H22.6z M21.7,3.6v1.6H22c0.3,0,0.5-0.1,0.5-0.5V4.1
			c0-0.4-0.1-0.5-0.4-0.5H21.7z"/>
		<path class="st0" d="M25.1,5.1h1.1v1.6c0,0.8-0.4,1.3-1.2,1.3c-0.8,0-1.2-0.5-1.2-1.3V4.1c0-0.8,0.4-1.3,1.2-1.3
			c0.8,0,1.2,0.5,1.2,1.3v0.5h-0.8V4c0-0.4-0.2-0.5-0.4-0.5c-0.3,0-0.4,0.1-0.4,0.5v2.8c0,0.4,0.2,0.5,0.4,0.5
			c0.3,0,0.4-0.1,0.4-0.5v-1h-0.4V5.1z"/>
		<path class="st0" d="M27.6,5h1.1v0.7h-1.1v1.5H29V8h-2.2V2.8H29v0.7h-1.4V5z"/>
		<path class="st0" d="M31.2,8c0-0.1-0.1-0.2-0.1-0.6V6.6c0-0.5-0.2-0.7-0.5-0.7h-0.3V8h-0.8V2.8h1.2c0.8,0,1.2,0.4,1.2,1.2v0.4
			c0,0.5-0.2,0.9-0.5,1.1c0.4,0.2,0.5,0.6,0.5,1.1v0.8c0,0.3,0,0.4,0.1,0.6H31.2z M30.3,3.6v1.6h0.3c0.3,0,0.5-0.1,0.5-0.5V4.1
			c0-0.4-0.1-0.5-0.4-0.5H30.3z"/>
		<path class="st0" d="M34.4,8h-0.8V2.8h0.8v2.2h0.9V2.8h0.8V8h-0.8V5.8h-0.9V8z"/>
		<path class="st0" d="M36.7,4.1c0-0.8,0.4-1.3,1.2-1.3c0.8,0,1.2,0.5,1.2,1.3v2.7c0,0.8-0.4,1.3-1.2,1.3c-0.8,0-1.2-0.5-1.2-1.3
			V4.1z M37.5,6.8c0,0.4,0.2,0.5,0.4,0.5c0.3,0,0.4-0.1,0.4-0.5V4c0-0.4-0.2-0.5-0.4-0.5c-0.3,0-0.4,0.1-0.4,0.5V6.8z"/>
		<path class="st0" d="M40.5,2.8v4c0,0.4,0.2,0.5,0.4,0.5s0.4-0.1,0.4-0.5v-4h0.8v3.9c0,0.8-0.4,1.3-1.2,1.3c-0.8,0-1.2-0.5-1.2-1.3
			V2.8H40.5z"/>
		<path class="st0" d="M43.7,2.8c0.8,0,1.2,0.5,1.2,1.3v0.2h-0.8V4c0-0.4-0.1-0.5-0.4-0.5c-0.3,0-0.4,0.1-0.4,0.5
			c0,1.1,1.6,1.3,1.6,2.7c0,0.8-0.4,1.3-1.2,1.3c-0.8,0-1.2-0.5-1.2-1.3V6.5h0.8v0.4c0,0.4,0.2,0.5,0.4,0.5c0.3,0,0.4-0.1,0.4-0.5
			c0-1.1-1.6-1.3-1.6-2.7C42.5,3.2,42.9,2.8,43.7,2.8z"/>
		<path class="st0" d="M46.2,5h1.1v0.7h-1.1v1.5h1.4V8h-2.2V2.8h2.2v0.7h-1.4V5z"/>
	</g>
</g>
</svg>
